<svg xmlns="http://www.w3.org/2000/svg" xmlns:xlink="http://www.w3.org/1999/xlink" version="1.1" x="0px" y="0px" viewBox="0 0 164 205" enable-background="new 0 0 164 164" xml:space="preserve"><path fill-rule="evenodd" clip-rule="evenodd" d="M86.784,62.293c-3.823,8.468-8.804,20.37-13.921,32.981  c-6.97,17.178-14.091,35.424-18.863,48.051c-4.259,11.193-40.12-3.75-32.819-16.084c6.625-11.296,12.515-21.733,18.24-32.387  c5.552-10.331,10.859-20.695,16.438-32.066c-1.73-5.369-0.928-9.396,1.272-14.414l-2.262-1.038l-0.598-0.274  c-1.493-0.682-2.155-2.44-1.487-3.937l-0.001,0c2.021-4.538,3.619-7.976,5.136-11.239c1.899-4.086,3.679-7.916,5.465-12.032  c0.653-1.515,2.411-2.212,3.926-1.559l0.091,0.042l0.003-0.006l0.929,0.438c12.134,5.715,22.054,10.388,34.483,15.842  c3.851-0.31,8.098-0.628,12.426-0.951c8.859-0.662,18.063-1.35,25.94-2.138c1.644-0.162,3.107,1.04,3.27,2.684  c0.01,0.103,0.015,0.205,0.014,0.306c0.461,16.94-14.816,50.609-28.834,60.429c-1.352,0.944-3.215,0.614-4.16-0.738l-0.032-0.049  l-0.003,0.002c-3.648-5.427-7.461-10.49-11.271-15.553c-3.721-4.941-7.441-9.884-11.008-15.141  C88.366,63.069,87.574,62.68,86.784,62.293L86.784,62.293z M67.309,93.023c5.111-12.595,10.143-24.604,14.092-33.336  c-6.26-3.002-12.517-5.909-18.817-8.809c-1.771,4.057-2.318,6.741-0.687,11.04l-0.005,0.002c0.28,0.743,0.265,1.596-0.112,2.365  C55.867,76.369,50.36,87.149,44.695,97.69c-5.674,10.559-11.606,21.063-18.357,32.574c-2.243,4.311,20.754,14.267,22.061,10.951  C53.251,128.378,60.404,110.039,67.309,93.023L67.309,93.023z M63.358,34.394c-1.245,2.679-2.542,5.469-3.901,8.47  c11.206,5.139,22.214,10.208,33.056,15.578l-0.001,0.002c0.455,0.224,0.859,0.566,1.161,1.018  c3.649,5.426,7.461,10.49,11.272,15.553c3.241,4.305,6.481,8.609,9.621,13.122c10.983-9.993,22.562-35.621,23.818-50.336  c-7.407,0.692-15.18,1.273-22.698,1.835c-4.461,0.333-8.834,0.66-13.135,1.011v-0.005c-0.475,0.038-0.964-0.038-1.43-0.241  c-12.311-5.39-21.988-9.928-33.495-15.347C66.118,28.455,64.773,31.349,63.358,34.394z"/><text x="0" y="179" fill="#000000" font-size="5px" font-weight="bold" font-family="'Helvetica Neue', Helvetica, Arial-Unicode, Arial, Sans-serif">Created by Aleksandr Vector</text><text x="0" y="184" fill="#000000" font-size="5px" font-weight="bold" font-family="'Helvetica Neue', Helvetica, Arial-Unicode, Arial, Sans-serif">from the Noun Project</text></svg>